<svg width="147" height="23" viewBox="0 0 147 23" fill="none" xmlns="http://www.w3.org/2000/svg">
<path d="M134.36 23V6.26965H137.706V8.50037H138.821V7.38501H139.937V6.26965H144.398V7.38501H145.513V8.50037H146.629V10.7311H145.513V11.8464H144.398V10.7311H143.283V9.61572H139.937V10.7311H138.821V11.8464H137.706V23H134.36Z" fill="black"/>
<path d="M129.844 12.9618V10.7311H128.729V9.61572H124.267V10.7311H123.152V12.9618H129.844ZM124.267 23V21.8846H122.037V20.7693H120.921V18.5386H119.806V10.7311H120.921V8.50037H122.037V7.38501H124.267V6.26965H128.729V7.38501H130.959V8.50037H132.075V10.7311H133.19V15.1925H123.152V18.5386H124.267V19.6539H128.729V18.5386H129.844V17.4232H133.19V19.6539H132.075V20.7693H130.959V21.8846H128.729V23H124.267Z" fill="black"/>
<path d="M106.169 23V0.692871H109.515V12.9618H110.63V11.8464H111.746V10.7311H112.861V9.61572H113.976V8.50036H115.092V7.38501H116.207V6.26965H120.669V7.38501H119.553V8.50036H118.438V9.61572H117.323V10.7311H116.207V11.8464H115.092V12.9618H113.976V14.0771H112.861V15.1925H113.976V16.3079H115.092V17.4232H116.207V18.5386H117.323V19.6539H118.438V20.7693H119.553V21.8846H120.669V23H116.207V21.8846H115.092V20.7693H113.976V19.6539H112.861V18.5386H111.746V17.4232H110.63V16.3079H109.515V23H106.169Z" fill="black"/>
<path d="M96.8779 23V21.8846H94.6472V20.7693H93.5319V18.5386H92.4165V10.7311H93.5319V8.50037H94.6472V7.38501H96.8779V6.26965H101.339V7.38501H103.57V8.50037H104.685V11.8464H102.455V10.7311H101.339V9.61572H96.8779V10.7311H95.7626V18.5386H96.8779V19.6539H101.339V18.5386H102.455V17.4232H104.685V20.7693H103.57V21.8846H101.339V23H96.8779Z" fill="black"/>
<path d="M85.7397 19.6539V18.5386H86.8551V17.4232H87.9705V11.8464H86.8551V10.7311H85.7397V9.61572H81.2783V10.7311H80.163V18.5386H81.2783V19.6539H85.7397ZM81.2783 23V21.8846H79.0476V20.7693H77.9323V18.5386H76.8169V10.7311H77.9323V8.50037H79.0476V7.38501H81.2783V6.26965H85.7397V7.38501H86.8551V8.50037H87.9705V6.26965H91.3165V23H87.9705V20.7693H86.8551V21.8846H85.7397V23H81.2783Z" fill="black"/>
<path d="M64.156 23V6.26965H67.5021V8.50037H68.6174V7.38501H69.7328V6.26965H74.1942V7.38501H75.3096V8.50037H76.4249V10.7311H75.3096V11.8464H74.1942V10.7311H73.0789V9.61572H69.7328V10.7311H68.6174V11.8464H67.5021V23H64.156Z" fill="black"/>
<path d="M58.9454 23V4.03894H51.1379V0.692871H70.099V4.03894H62.2915V23H58.9454Z" fill="black"/>
<path d="M53.2687 12.9618V10.7311H52.1533V9.61572H47.6919V10.7311H46.5765V12.9618H53.2687ZM47.6919 23V21.8846H45.4612V20.7693H44.3458V18.5386H43.2305V10.7311H44.3458V8.50037H45.4612V7.38501H47.6919V6.26965H52.1533V7.38501H54.384V8.50037H55.4994V10.7311H56.6147V15.1925H46.5765V18.5386H47.6919V19.6539H52.1533V18.5386H53.2687V17.4232H56.6147V19.6539H55.4994V20.7693H54.384V21.8846H52.1533V23H47.6919Z" fill="black"/>
<path d="M27.8508 23V6.26965H31.1969V8.50037H32.3123V7.38501H33.4276V6.26965H36.7737V7.38501H39.0044V8.50037H40.1197V10.7311H41.2351V23H37.889V10.7311H36.7737V9.61572H33.4276V10.7311H32.3123V11.8464H31.1969V23H27.8508Z" fill="black"/>
<path d="M15.2139 23V21.8846H14.0985V20.7693H12.9832V6.26965H16.3292V18.5386H17.4446V19.6539H20.7906V18.5386H21.906V17.4232H23.0214V6.26965H26.3674V23H23.0214V20.7693H21.906V21.8846H20.7906V23H15.2139Z" fill="black"/>
<path d="M7.80749 23V5.03894H0V1.69287H18.9611V5.03894H11.1536V23H7.80749Z" fill="black"/>
</svg>
